<svg width="1647" height="1647" viewBox="0 0 1647 1647" fill="none" xmlns="http://www.w3.org/2000/svg">
<rect x="22.8688" y="22.8688" width="1600.82" height="1600.82" rx="68.6065" fill="#F6E7CB" stroke="#B99268" stroke-width="45.7377"/>
<path d="M819.257 1401.3L483.044 1307.97L408.121 467.616H1231.4L1156.4 1307.84L819.257 1401.3Z" fill="#774723"/>
<path d="M1092.18 1254.33L1156.28 536.326H819.758V1329.86L1092.18 1254.33Z" fill="#89572D"/>
<path d="M579.883 848.003L589.12 951.068H819.762V848.003H579.883Z" fill="#F6E7CB"/>
<path d="M561.32 639.394L570.689 742.461H819.761V639.394H561.32Z" fill="#F6E7CB"/>
<path d="M819.767 1115.67L819.315 1115.79L704.53 1084.8L697.192 1002.6H593.73L608.17 1164.43L819.293 1223.04L819.767 1222.91V1115.67Z" fill="#F6E7CB"/>
<path d="M601.879 239.243H726.71V291.445H654.081V343.647H726.71V395.849H601.879V239.243Z" fill="#391809"/>
<path d="M751.668 239.243H876.499V284.636H803.87V293.714H876.499V398.118H751.668V350.456H824.297V341.377H751.668V239.243Z" fill="#391809"/>
<path d="M901.461 239.243H1026.29V284.636H953.663V293.714H1026.29V398.118H901.461V350.456H974.09V341.377H901.461V239.243Z" fill="#391809"/>
<path d="M1058.98 848.002L1077.58 639.394H819.402V742.461H964.633L955.254 848.002H819.402V951.067H946.317L934.353 1084.74L819.402 1115.76V1222.99L1030.69 1164.43L1032.24 1147.02L1056.46 875.678L1058.98 848.002Z" fill="#FBF5E9"/>
</svg>
