<svg width="1647" height="1647" viewBox="0 0 1647 1647" fill="none" xmlns="http://www.w3.org/2000/svg">
<rect x="22.8688" y="22.8688" width="1600.82" height="1600.82" rx="68.6065" fill="#F6E7CB" stroke="#B99268" stroke-width="45.7377"/>
<path fill-rule="evenodd" clip-rule="evenodd" d="M837.359 826.798C837.359 731.588 917.696 654.402 1016.79 654.402C1115.89 654.402 1196.22 731.588 1196.22 826.798C1196.22 922.008 1115.89 999.194 1016.79 999.194C917.696 999.194 837.359 922.008 837.359 826.798Z" fill="#774723"/>
<path fill-rule="evenodd" clip-rule="evenodd" d="M457.375 1192.7C457.375 1097.49 537.71 1020.3 636.807 1020.3H816.24V1192.7C816.24 1287.91 735.904 1365.1 636.807 1365.1C537.71 1365.1 457.375 1287.91 457.375 1192.7Z" fill="#774723"/>
<path fill-rule="evenodd" clip-rule="evenodd" d="M837.359 288.5V633.292H1016.79C1115.89 633.292 1196.22 556.106 1196.22 460.896C1196.22 365.685 1115.89 288.5 1016.79 288.5H837.359Z" fill="#774723"/>
<path fill-rule="evenodd" clip-rule="evenodd" d="M457.375 460.896C457.375 556.106 537.71 633.292 636.807 633.292H816.24V288.5H636.807C537.71 288.5 457.375 365.685 457.375 460.896Z" fill="#774723"/>
<path fill-rule="evenodd" clip-rule="evenodd" d="M457.375 826.798C457.375 922.008 537.71 999.194 636.807 999.194H816.24V654.402H636.807C537.71 654.402 457.375 731.588 457.375 826.798Z" fill="#774723"/>
</svg>
