<svg width="1647" height="1647" viewBox="0 0 1647 1647" fill="none" xmlns="http://www.w3.org/2000/svg">
<rect x="22.8688" y="22.8688" width="1600.82" height="1600.82" rx="68.6065" fill="#F6E7CB" stroke="#B99268" stroke-width="45.7377"/>
<path fill-rule="evenodd" clip-rule="evenodd" d="M823.273 253.317C1138.06 253.317 1393.23 514.926 1393.23 837.695C1393.23 1095.83 1230.11 1314.81 1003.78 1392.16C974.883 1397.91 964.623 1379.66 964.623 1364.1C964.623 1344.84 965.307 1281.92 965.307 1203.72C965.307 1149.23 947.069 1113.67 926.607 1095.54C1053.54 1081.07 1186.91 1031.64 1186.91 807.194C1186.91 743.358 1164.79 691.266 1128.2 650.343C1134.13 635.581 1153.68 576.141 1122.62 495.663C1122.62 495.663 1074.85 480.004 966.048 555.581C920.508 542.643 871.719 536.133 823.273 535.905C774.826 536.133 726.094 542.643 680.611 555.581C571.691 480.004 523.815 495.663 523.815 495.663C492.866 576.141 512.415 635.581 518.286 650.343C481.865 691.266 459.58 743.358 459.58 807.194C459.58 1031.07 592.666 1081.25 719.255 1096.02C702.954 1110.61 688.192 1136.35 683.062 1174.13C650.574 1189.07 568.043 1214.91 517.203 1125.6C517.203 1125.6 487.052 1069.45 429.828 1065.35C429.828 1065.35 374.256 1064.61 425.952 1100.86C425.952 1100.86 463.285 1118.81 489.218 1186.35C489.218 1186.35 522.675 1290.65 681.238 1255.32C681.523 1304.16 682.036 1350.2 682.036 1364.1C682.036 1379.55 671.549 1397.63 643.107 1392.21C416.605 1314.98 253.311 1095.89 253.311 837.695C253.311 514.926 508.54 253.317 823.273 253.317Z" fill="#774723"/>
</svg>
