<svg width="1647" height="1647" viewBox="0 0 1647 1647" fill="none" xmlns="http://www.w3.org/2000/svg">
<rect x="22.8688" y="22.8688" width="1600.82" height="1600.82" rx="68.6065" fill="#F6E7CB" stroke="#B99268" stroke-width="45.7377"/>
<path d="M1231.4 467.616L1156.4 1307.84L819.257 1401.3L483.044 1307.97L408.121 467.616H1231.4Z" fill="#774723"/>
<path d="M819.758 1329.86L1092.18 1254.33L1156.28 536.326H819.758V1329.86Z" fill="#89572D"/>
<path d="M673.96 742.461H819.763V639.394H561.322L563.789 667.045L589.121 951.067H819.763V848.002H683.379L673.96 742.461Z" fill="#F6E7CB"/>
<path d="M697.192 1002.6H593.73L608.17 1164.43L819.293 1223.04L819.767 1222.91V1115.67L819.315 1115.79L704.53 1084.8L697.192 1002.6Z" fill="#F6E7CB"/>
<path d="M484.73 239.243H537.107V290.991H585.019V239.243H637.398V395.949H585.022V343.474H537.109V395.949H484.733L484.73 239.243Z" fill="#391809"/>
<path d="M706.27 291.209H660.16V239.243H804.782V291.209H758.652V395.949H706.273L706.27 291.209Z" fill="#391809"/>
<path d="M827.729 239.243H882.343L915.938 294.305L949.5 239.243H1004.13V395.949H951.974V318.277L915.938 373.994H915.037L878.977 318.277V395.949H827.729V239.243Z" fill="#391809"/>
<path d="M1030.21 239.243H1082.6V344.151H1156.25V395.949H1030.21V239.243Z" fill="#391809"/>
<path d="M819.402 951.063H946.317L934.353 1084.73L819.402 1115.76V1222.99L1030.69 1164.43L1032.24 1147.01L1056.46 875.675L1058.98 847.999H819.402V951.063Z" fill="#FBF5E9"/>
<path d="M819.402 742.209V742.461H1068.36L1070.42 719.295L1075.12 667.045L1077.58 639.394H819.402V742.209Z" fill="#FBF5E9"/>
</svg>
