<svg width="1647" height="1647" viewBox="0 0 1647 1647" fill="none" xmlns="http://www.w3.org/2000/svg">
<rect x="22.8688" y="22.8688" width="1600.82" height="1600.82" rx="68.6065" fill="#F6E7CB" stroke="#B99268" stroke-width="45.7377"/>
<path d="M1198.69 295.535H454.921C366.899 295.535 295.543 366.891 295.543 454.913V1198.68C295.543 1286.7 366.899 1358.06 454.921 1358.06H1198.69C1286.71 1358.06 1358.06 1286.7 1358.06 1198.68V454.913C1358.06 366.891 1286.71 295.535 1198.69 295.535Z" fill="#774723"/>
<path d="M967.926 1063.37C988.678 1098.65 1017.73 1123.56 1065.46 1123.56C1106.97 1123.56 1133.95 1102.8 1133.95 1073.75C1133.95 1040.55 1106.97 1028.1 1061.31 1007.34L1036.41 996.967C963.775 965.838 916.045 928.484 916.045 847.549C916.045 772.841 972.076 714.734 1061.31 714.734C1125.64 714.734 1171.3 737.562 1202.43 795.668L1125.64 845.474C1109.04 814.346 1090.37 801.894 1061.31 801.894C1032.26 801.894 1013.58 820.571 1013.58 845.474C1013.58 874.527 1032.26 886.979 1075.84 905.656L1100.74 916.032C1185.83 953.387 1233.56 988.666 1233.56 1073.75C1233.56 1162.99 1163 1212.79 1067.54 1212.79C974.152 1212.79 913.97 1169.21 884.916 1111.1L967.926 1063.37ZM615.135 1071.68C631.737 1098.65 644.189 1123.56 679.468 1123.56C712.672 1123.56 733.424 1111.1 733.424 1061.3V716.809H833.035V1057.15C833.035 1160.91 772.854 1206.57 683.618 1206.57C602.684 1206.57 557.029 1165.06 534.201 1115.26L615.135 1071.68Z" fill="#F6E7CB"/>
</svg>
